<svg 
    viewBox="0 0 105 105"
    fill="none"
    width="500"
    height="500"
    xmlns="http://www.w3.org/2000/svg"
>
    <path
        id="letter-r"
        fill-rule="evenodd"
        clip-rule="evenodd"
        d="M56.49 38.22H43.58L43.57 45.43H55.55C58.1 45.43 61.2 44.53 61.2 42.02C61.2 38.99 57.16 38.22 56.49 38.22ZM91 54.76H86.48C86.09 54.76 85.93 55.02 85.93 55.4V57.2C85.93 61.44 83.54 62.37 81.44 62.6C79.44 62.83 77.23 61.76 76.95 60.54C75.7977 54.0656 73.9016 52.5691 70.9264 50.2209C70.8549 50.1644 70.7828 50.1075 70.71 50.05C74.56 47.61 78.56 44 78.56 39.18C78.56 33.97 74.99 30.69 72.56 29.08C69.14 26.83 65.36 26.38 64.34 26.38H18.5V37.96H26.38V62.4H15.44V74.63H52.72C53.07 74.63 53.31 74.57 53.31 74.24V63.18C53.31 62.86 53.07 62.79 52.72 62.79H43.57L43.58 55.78H53.47C54.37 55.78 58.3 56.04 59.55 61.06C59.6877 61.6037 59.8852 62.5811 60.1091 63.689C60.5194 65.7195 61.0183 68.1884 61.4 69.23C61.99 71.03 64.38 74.63 66.93 74.63H83.5C88.5098 67.4797 90.1667 63.0981 91 54.76Z"
        fill="black"
    />
    <path
        id="inner-gear"
        fill-rule="evenodd"
        clip-rule="evenodd"
        d="M5 52.27C5 26.22 26.21 5 52.27 5C78.32 5 99.54 26.22 99.54 52.27C99.54 78.32 78.32 99.54 52.27 99.54C26.22 99.54 5 78.32 5 52.27ZM54.3405 10.1388C53.7763 9.55781 53.0082 9.22093 52.2 9.2C51.7841 9.18796 51.37 9.2595 50.9822 9.41039C50.5944 9.56129 50.2409 9.78846 49.9425 10.0785C49.6441 10.3685 49.4069 10.7154 49.245 11.0987C49.0832 11.482 48.9998 11.8939 49 12.31C49 13.1348 49.3277 13.9259 49.9109 14.5091C50.4941 15.0923 51.2852 15.42 52.11 15.42C52.9348 15.42 53.7259 15.0923 54.3091 14.5091C54.8923 13.9259 55.22 13.1348 55.22 12.31C55.2203 11.4989 54.9047 10.7198 54.3405 10.1388ZM17.2611 38.2821C16.6972 37.7014 15.9291 37.3634 15.12 37.34C14.7041 37.328 14.29 37.3995 13.9022 37.5504C13.5144 37.7013 13.1609 37.9285 12.8625 38.2185C12.5641 38.5085 12.3269 38.8554 12.165 39.2387C12.0032 39.622 11.9198 40.0339 11.92 40.45C11.92 41.2748 12.2477 42.0659 12.8309 42.6491C13.4141 43.2323 14.2052 43.56 15.03 43.56C15.8548 43.56 16.6459 43.2323 17.2291 42.6491C17.8123 42.0659 18.14 41.2748 18.14 40.45C18.1403 39.6405 17.8251 38.8628 17.2611 38.2821ZM91.4111 38.4221C90.8472 37.8414 90.0791 37.5034 89.27 37.48C88.8541 37.468 88.44 37.5395 88.0522 37.6904C87.6644 37.8413 87.3109 38.0685 87.0125 38.3585C86.7141 38.6485 86.4769 38.9954 86.315 39.3787C86.1532 39.762 86.0698 40.1739 86.07 40.59C86.07 41.4148 86.3977 42.2059 86.9809 42.7891C87.5641 43.3723 88.3552 43.7 89.18 43.7C90.0048 43.7 90.7959 43.3723 91.3791 42.7891C91.9623 42.2059 92.29 41.4148 92.29 40.59C92.2903 39.7805 91.9751 39.0028 91.4111 38.4221ZM31.3111 82.0721C30.7472 81.4914 29.9791 81.1534 29.17 81.13C28.7541 81.118 28.34 81.1895 27.9522 81.3404C27.5644 81.4913 27.2109 81.7185 26.9125 82.0085C26.6141 82.2985 26.3769 82.6454 26.215 83.0287C26.0532 83.412 25.9698 83.8239 25.97 84.24C25.97 85.0648 26.2977 85.8559 26.8809 86.4391C27.4641 87.0223 28.2552 87.35 29.08 87.35C29.9048 87.35 30.6959 87.0223 31.2791 86.4391C31.8623 85.8559 32.19 85.0648 32.19 84.24C32.1903 83.4305 31.8751 82.6528 31.3111 82.0721ZM77.3612 82.2121C76.7972 81.6314 76.0291 81.2934 75.22 81.27C74.8041 81.258 74.39 81.3295 74.0022 81.4804C73.6144 81.6313 73.2609 81.8585 72.9625 82.1485C72.6641 82.4385 72.4269 82.7854 72.265 83.1687C72.1032 83.552 72.0198 83.9639 72.02 84.38C72.02 85.2048 72.3477 85.9959 72.9309 86.5791C73.5141 87.1623 74.3052 87.49 75.13 87.49C75.9548 87.49 76.7459 87.1623 77.3291 86.5791C77.9123 85.9959 78.24 85.2048 78.24 84.38C78.2403 83.5705 77.9251 82.7928 77.3612 82.2121ZM74 20.5C69.4756 17.2777 64.9596 15.5317 59.5 14.5091L53.96 19.97C52.83 21.06 51.04 21.01 49.96 19.88L45.5 14.5091C36.47 14.5091 22.36 24.5 19 33.52L22.36 41.63C23 43.06 22.35 44.73 20.92 45.37L14.22 48.35C12.8309 59.5 17.85 70.77 24.5 77.88C24.5 77.88 29.7811 77.33 31.3111 77C32.8411 76.67 34.17 77.76 34.5 79.29L36 86C40.36 88.81 45.9929 89.9741 51.5 90C57.0071 90.0259 62.9835 88.8515 68 86.5791L69.5 80C69.83 78.47 71.4009 76.67 72.9309 77L79.5 78.5C86.265 73.25 92.29 57.5 90.35 48.68L83.29 45.55C81.87 44.91 81.22 43.23 81.85 41.8L85.5 33C82.7487 28.1747 79.5 24 74 20.5Z"
        fill="black"
    />
    <path
        id="outer-gear"
        fill-rule="evenodd"
        clip-rule="evenodd"
        d="M96.88 52.25C96.88 64.0866 92.1779 75.4384 83.8082 83.8082C75.4384 92.1779 64.0866 96.88 52.25 96.88C40.4134 96.88 29.0616 92.1779 20.6918 83.8082C12.3221 75.4384 7.62 64.0866 7.62 52.25C7.62 40.4134 12.3221 29.0616 20.6918 20.6918C29.0616 12.3221 40.4134 7.62 52.25 7.62C64.0866 7.62 75.4384 12.3221 83.8082 20.6918C92.1779 29.0616 96.88 40.4134 96.88 52.25ZM96.04 47.94L103 52.25L96.04 56.56L102.02 62.15L94.36 65.02L99.14 71.67L91.05 72.99L94.45 80.45L86.26 80.16L88.14 88.14L80.16 86.26L80.45 94.45L72.99 91.05L71.67 99.14L65.02 94.36L62.15 102.02L56.56 96.04L52.25 103L47.94 96.04L42.35 102.02L39.48 94.36L32.83 99.14L31.51 91.05L24.05 94.45L24.34 86.26L16.36 88.14L18.24 80.16L10.05 80.45L13.45 72.99L5.36 71.67L10.14 65.02L2.48 62.15L8.46 56.56L1.5 52.25L8.46 47.94L2.48 42.35L10.14 39.48L5.36 32.83L13.45 31.51L10.05 24.05L18.24 24.34L16.36 16.36L24.34 18.24L24.05 10.05L31.51 13.45L32.83 5.36L39.48 10.14L42.35 2.48L47.94 8.46L52.25 1.5L56.56 8.46L62.15 2.48L65.02 10.14L71.67 5.36L72.99 13.45L80.45 10.05L80.16 18.24L88.14 16.36L86.26 24.34L94.45 24.05L91.05 31.51L99.14 32.83L94.36 39.48L102.02 42.35L96.04 47.94Z"
        fill="black"
        stroke="black"
        stroke-width="3"
        stroke-linecap="round"
        stroke-linejoin="round"
    />
</svg>
