<?xml version="1.0" encoding="UTF-8" standalone="no"?>
<svg xmlns="http://www.w3.org/2000/svg" height="144" width="144" viewBox="0 0 135 135" xml:space="preserve">
    <defs>
    </defs>
    <g transform="scale(0.2)">
        <path style="fill:#ee8421;fill-opacity:1;fill-rule:nonzero;stroke:none;)" d="m 245,80
           c -21.984,15.34
			-49.589,36.21
			-70.05,56.04
			-29.344,26.62
			-53.328,59.08
			-70.086,94.86
			13.027,-37.43
			33.894,-73.61
			64.707,-102.99
			23.789,-19.45
			49.277,-35.2
			75.429,-47.91
           z
           m 283.508,464.34
           c -23.019,34.91
             -67.136,55.51
             -109.523,68.96
             -125.883,49.63
             -305.324,-45.01
             -331.926,-208.18
             -1.707,-7.6
             -4.519,-24.99
             -3.836,-38
             11.387,99.8
             71.883,187.38
             154.07,224.66
             81.012,38.93
             176.68,32.05
             242.235,-14.05
             3.383,-2.65
             6.758,-5.5
             9.965,-8.31
             -11.461,5.91
             -23.555,10.91
             -36.059,14.92
             -44.34,21.37
             -97.086,29.84
             -149.531,18.59
             -103.215,-16.18
             -196.793,-110.16
             -212.945,-227.39
             -1.309,-7.58
             -2.188,-15.32
			 -2.731,-23.08
			 -3.105,2.25
			 -5.004,7.76
			 -5.004,14.66
			 -1.734,-8
			 -1.734,-15.99
			 -1.348,-24.08
			 -1.121,-37.5
			 7.329,-76.14
			 22.989,-112.14
			 -6.078,18.59
			 -9.883,37.37
			 -11.965,56.12
			 7.461,-36.53
			 22.832,-71.65
			 46.23,-99.9
			 15.383,-15.82
			 32.606,-50.56
			 53.434,-61.71
			 79.211,-62.83
			 199.398,-84.16
			 280.52,-37.94
			 11.105,2.99
			 22.175,6.2
			 32.171,11.99
			 -12.961,-4.3
			 -27.511,-7.17
			 -39.144,-11.25
			l -3.879,-0.04
			c -3.352,-1.91
			-5.02,-2.82
			-6.731,-3.75
			-59.89,-7.56
			-182.539,-20.84
			-258.125,42.87
			-21.46,15.4
			-38.074,35.66
			-53.644,56.44
			7.957,-5.44
			20.773,-12.8
			28.504,-20.94
			38.078,-38.03
			90.387,-72.42
			141.32,-76.53
			-23.488,9.59
			-43.664,21
			-65.879,34.45
			-11.504,5.3
			-29.933,8.35
			-38.285,18.09
			-47.598,40.62
			-88.266,82.24
			-95.582,144.73
			-1.113,6.13
			2.852,10.97
			0.867,16.56
			12.004,-69.19
			55.352,-120.37
			109.813,-161.18
			7.39,-8.67
			15.73,-12.25
			23.187,-18.2
			9.52,-3.42
			17.965,-6.71
			24.965,-10.4
			80.859,-30.22
			95.289,2.93
			167.797,3.98
			-32.703,-8.29
			-88.605,-23.58
			-116.895,-25.42
			50.868,-10.48
			146.872,15.41
			190.723,48.05
			54.508,37.2
			43.57,38.87
			71.719,86.45
			2.461,3.89
			4.859,12.75
			6.883,23.48
			17.101,32.93
			26.902,70.31
			26.902,109.99
			0,76.13
			-35.746,143.81
			-91.262,187.5
			z M 194.215,3949.4
			c -4.785,30.86
			-6.207,62.4
			0.449,93.73
			-0.633,-6.18
			-1.148,-11.15
			-0.851,-13.52
			-3.008,-37.79
			-0.102,-68.66
			3.359,-88.72
			-0.867,2.67
			-1.844,5.43
			-2.957,8.51
			1.332,-5.95
			2.926,-11.87
			4.75,-17.61
			3.015,-14.15
			5.801,-19.79
			5.004,-14.56
			24.176,-63.35
			75.176,-112.26
			131.734,-135.35
			-55.262,6.87
			-128.461,82.28
			-141.488,167.52
			z m 161.144,272.12
			c -46.211,-9.64
			-91.421,-35.17
			-124.617,-80.41
			22.246,28.19
			48.785,43.34
			74.684,52.44
			-2.336,-1.71
			-4.61,-3.41
			-6.856,-5.17
			-20.207,-11.98
			-39.179,-26.38
			-56.156,-44.42
			-4.582,-5.87
			-6.672,-13.02
			-10.949,-18.21
			l -9.059,-13.66
			c -12.011,-11.35
			-19.187,-24.94
			-26.996,-39.34
			-33.906,-74.8
			-29.828,-167.94
			16.703,-246.25
			-84.133,116.5
			-50.945,282.96
			48.625,356.67
			41.434,32.69
			89.453,48.65
			136.606,51.25
			-14.524,-2.99
			-28.535,-7.41
			-41.985,-12.9
			z m 152.844,-460.93
			c -7.836,-1.39
			4.27,2
			39.504,22.81
			3.059,1.76
			6.375,3.89
			9.836,6.16
			13.734,7.28
			26.727,15.93
			38.742,25.74
			-34.687,-33.57
			-77.305,-54.88
			-88.082,-54.71" />

    </g>
    <g transform="scale(0.89)">

        <path fill="white" d="m124.68 78.95a44.63 44.63 0 0 1 -44.63 44.63 44.63 44.63 0 0 1 -44.63-44.63 44.63 44.63 0 0 1 44.63-44.63 44.63 44.63 0 0 1 44.63 44.63zm-.84-4.31 6.96 4.31-6.96 4.31 5.98 5.59-7.66 2.87 4.78 6.65-8.09 1.32 3.4 7.46-8.19-.29 1.88 7.98-7.98-1.88.29 8.19-7.46-3.4-1.32 8.09-6.65-4.78-2.87 7.66-5.59-5.98-4.31 6.96-4.31-6.96-5.59 5.98-2.87-7.66-6.65 4.78-1.32-8.09-7.46 3.4.29-8.19-7.98 1.88 1.88-7.98-8.19.29 3.4-7.46-8.09-1.32 4.78-6.65-7.66-2.87 5.98-5.59-6.96-4.31 6.96-4.31-5.98-5.59 7.66-2.87-4.78-6.65 8.09-1.32-3.4-7.46 8.19.29-1.88-7.98 7.98 1.88-.29-8.19 7.46 3.4 1.32-8.09 6.65 4.78 2.87-7.66 5.59 5.98 4.31-6.96 4.31 6.96 5.59-5.98 2.87 7.66 6.65-4.78 1.32 8.09 7.46-3.4-.29 8.19 7.98-1.88-1.88 7.98 8.19-.29-3.4 7.46 8.09 1.32-4.78 6.65 7.66 2.87z" fill-rule="evenodd" stroke-linecap="round" stroke-linejoin="round" stroke-width="3"/>

        <path fill="white" d="m80.05 31.68
        c-26.06 0-47.27 21.22-47.27 47.27
        s21.22 47.27 47.27 47.27 47.27-21.22 47.27-47.27-21.22-47.27-47.27-47.27z
        m-.07 4.2
        a3.1 3.11 0 0 1 3.02 3.11 3.11 3.11 0 0 1 -6.22 0 3.11 3.11 0 0 1 3.2-3.11z
        m7.12 5.12
        a38.27 38.27 0 0 1 26.2 18.66l-3.67 8.28
        c-.63 1.43.02 3.11 1.44 3.75l7.06 3.13a38.27 38.27 0 0 1  .08 6.64h-3.93
        c-.39 0-.55.26-.55.64
        v1.8
        c0 4.24-2.39 5.17-4.49 5.4-2 .23-4.21-.84-4.49-2.06-1.18-6.63-3.14-8.04-6.24-10.49 3.85-2.44 7.85-6.05 7.85-10.87 0-5.21-3.57-8.49-6-10.1-3.42-2.25-7.2-2.7-8.22-2.7
        h-40.6a38.27 38.27 0 0 1 21.41-12.08l4.79 5.02c1.08 1.13 2.87 1.18 4 .09z
        m-44.2 23.02
        a3.11 3.11 0 0 1 3.02 3.11 3.11 3.11 0 0 1 -6.22 0 3.11 3.11 0 0 1 3.2-3.11z
        m74.15.14a3.11 3.11 0 0 1 3.02 3.11 3.11 3.11 0 0 1 -6.22 0 3.11 3.11 0 0 1 3.2-3.11z
        m-68.29.5h5.42
        v24.44h-10.94
        a38.27 38.27 0 0 1 -1.24-14.61l6.7-2.98
        c1.43-.64 2.08-2.31 1.44-3.74z
        m22.62.26h12.91c.67 0 4.71.77 4.71 3.8 0 2.51-3.1 3.41-5.65 3.41h-11.98z
        m0 17.56h9.89c.9 0 4.83.26 6.08 5.28.39 1.54 1.26 6.56 1.85 8.17.59 1.8 2.98 5.4 5.53 5.4h16.14a38.27 38.27 0 0 1 -3.54 4.1l-6.57-1.41c-1.53-.33-3.04.65-3.37 2.18l-1.56 7.28a38.27 38.27 0 0 1 -31.91-.15l-1.56-7.28c-.33-1.53-1.83-2.51-3.36-2.18l-6.43 1.38a38.27 38.27 0 0 1 -3.32-3.92h31.27c.35 0 .59-.06.59-.39v-11.06c0-.32-.24-.39-.59-.39h-9.15zm-14.43 25.33a3.11 3.11 0 0 1 3.02 3.11 3.11 3.11 0 0 1 -6.22 0 3.11 3.11 0 0 1 3.2-3.11zm46.05.14a3.11 3.11 0 0 1 3.02 3.11 3.11 3.11 0 0 1 -6.22 0 3.11 3.11 0 0 1 3.2-3.11z" />
    </g>
</svg>
