<svg xmlns="http://www.w3.org/2000/svg" viewBox="0 0 144 144">
<defs>
    <mask id="mask">
        <circle
            cx="72"
            cy="72"
            r="55"
            fill="white"
        />
        <path
            stroke-linejoin="bevel"
            fill="black"
            d="
            m 73 71.5
            l 25.5 25.5
            a 35 35 0 0 0 10.5 -30
            z
            "
        />
        <path
            stroke-linejoin="bevel"
            fill="black"
            d="
            m 72 72
            l -8.5 -39
            a 35 35 0 0 0 -26 19.5
            l 5 10
            z
            "
        />
        <path
            stroke-linejoin="bevel"
            fill="black"
            d="
            m 72 72
            l -39.1 -5
            a 35 35 0 0 0 11 30.2
            z"
        />
        <rect
            x="42"
            y="45"
            width="56"
            height="50"
            fill="black"
        />

    </mask>
</defs>
    <path
        mask="url(#mask)"
        d="
        m71.05 23.68
        c-26.06 0-47.27 21.22-47.27 47.27
        s21.22 47.27 47.27 47.27 47.27-21.22 47.27-47.27-21.22-47.27-47.27-47.27
        z
        m-.07 4.2
        a3.1 3.11 0 0 1 3.02 3.11 3.11 3.11 0 0 1 -6.22 0 3.11 3.11 0 0 1 3.2-3.11
        z
        m7.12 5.12
        a38.27 38.27 0 0 1 26.2 18.66
        l-3.67 8.28
        c-.63 1.43.02 3.11 1.44 3.75
        l7.06 3.13
        a38.27 38.27 0 0 1 .08 6.64
        h-3.93
        c-.39 0-.55.26-.55.64
        v1.8
        c0 4.24-2.39 5.17-4.49 5.4-2 .23-4.21-.84-4.49-2.06-1.18-6.63-3.14-8.04-6.24-10.49 3.85-2.44 7.85-6.05 7.85-10.87 0-5.21-3.57-8.49-6-10.1-3.42-2.25-7.2-2.7-8.22-2.7
        h-40.6
        a38.27 38.27 0 0 1 21.41-12.08
        l4.79 5.02
        c1.08 1.13 2.87 1.18 4 .09
        z
        m-44.2 23.02
        a3.11 3.11 0 0 1 3.02 3.11 3.11 3.11 0 0 1 -6.22 0 3.11 3.11 0 0 1 3.2-3.11
        z
        m74.15.14
        a3.11 3.11 0 0 1 3.02 3.11 3.11 3.11 0 0 1 -6.22 0 3.11 3.11 0 0 1 3.2-3.11
        zm-68.29.5
        h5.42
        v24.44
        h-10.94
        a38.27 38.27 0 0 1 -1.24-14.61
        l6.7-2.98
        c1.43-.64 2.08-2.31 1.44-3.74
        z
        m22.62.26
        h12.91
        c.67 0 4.71.77 4.71 3.8 0 2.51-3.1 3.41-5.65 3.41
        h-11.98
        z
        m0 17.56
        h9.89
        c.9 0 4.83.26 6.08 5.28.39 1.54 1.26 6.56 1.85 8.17.59 1.8 2.98 5.4 5.53 5.4
        h16.14
        a38.27 38.27 0 0 1 -3.54 4.1
        l-6.57-1.41
        c-1.53-.33-3.04.65-3.37 2.18
        l-1.56 7.28
        a38.27 38.27 0 0 1 -31.91-.15
        l-1.56-7.28
        c-.33-1.53-1.83-2.51-3.36-2.18
        l-6.43 1.38
        a38.27 38.27 0 0 1 -3.32-3.92
        h31.27
        c.35 0 .59-.06.59-.39
        v-11.06
        c0-.32-.24-.39-.59-.39
        h-9.15
        zm-14.43 25.33
        a3.11 3.11 0 0 1 3.02 3.11 3.11 3.11 0 0 1 -6.22 0 3.11 3.11 0 0 1 3.2-3.11
        zm46.05.14
        a3.11 3.11 0 0 1 3.02 3.11 3.11 3.11 0 0 1 -6.22 0 3.11 3.11 0 0 1 3.2-3.11
        z"/>
    <path d="
        m115.68 70.95
        a44.63 44.63 0 0 1 -44.63 44.63 44.63 44.63 0 0 1 -44.63-44.63 44.63 44.63 0 0 1 44.63-44.63 44.63 44.63 0 0 1 44.63 44.63
        z
        m-.84-4.31 6.96 4.31-6.96 4.31 5.98 5.59-7.66 2.87 4.78 6.65-8.09 1.32 3.4 7.46-8.19-.29 1.88 7.98-7.98-1.88.29 8.19-7.46-3.4-1.32 8.09-6.65-4.78-2.87 7.66-5.59-5.98-4.31 6.96-4.31-6.96-5.59 5.98-2.87-7.66-6.65 4.78-1.32-8.09-7.46 3.4.29-8.19-7.98 1.88 1.88-7.98-8.19.29 3.4-7.46-8.09-1.32 4.78-6.65-7.66-2.87 5.98-5.59-6.96-4.31 6.96-4.31-5.98-5.59 7.66-2.87-4.78-6.65 8.09-1.32-3.4-7.46 8.19.29-1.88-7.98 7.98 1.88-.29-8.19 7.46 3.4 1.32-8.09 6.65 4.78 2.87-7.66 5.59 5.98 4.31-6.96 4.31 6.96 5.59-5.98 2.87 7.66 6.65-4.78 1.32 8.09 7.46-3.4-.29 8.19 7.98-1.88-1.88 7.98 8.19-.29-3.4 7.46 8.09 1.32-4.78 6.65 7.66 2.87
        z" fill-rule="evenodd" stroke="#000" stroke-linecap="round" stroke-linejoin="round" stroke-width="3"
    />
</svg>